{"glyphs":{":":{"x_min":0,"x_max":303,"ha":303,"o":"m 138 517 l 230 517 l 209 393 l 116 393 z m 68 124 l 161 124 l 139 0 l 46 0 z"},"$":{"x_min":0,"x_max":572,"ha":572,"o":"m 264 71 q 325 74 360 105 q 396 137 396 187 q 396 228 374 250 q 351 273 301 282 z m 308 576 q 250 569 217 538 q 184 507 184 458 q 184 424 205 405 q 226 385 273 376 z m 513 616 l 498 528 q 460 550 423 562 q 387 575 352 576 l 315 367 q 396 353 438 311 q 481 269 481 203 q 481 118 418 62 q 355 6 251 0 l 225 -147 l 181 -147 l 207 0 q 156 1 111 13 q 66 24 30 45 l 45 135 q 85 104 129 88 q 173 71 220 69 l 258 292 q 175 310 137 346 q 100 382 100 444 q 100 525 160 581 q 221 637 319 646 l 340 760 l 384 760 l 365 646 q 404 645 442 637 q 479 629 513 616 z"},"?":{"x_min":0,"x_max":478,"ha":478,"o":"m 224 124 l 203 0 l 113 0 l 135 124 z m 127 687 q 172 715 217 729 q 261 742 308 742 q 378 742 419 706 q 460 669 460 606 q 460 556 437 512 q 413 468 360 420 l 314 379 q 277 347 265 324 q 253 301 245 256 l 234 196 l 150 196 l 164 271 q 172 317 189 349 q 206 381 255 426 l 301 469 q 338 503 353 529 q 368 555 368 583 q 368 620 344 641 q 320 662 278 662 q 243 662 200 645 q 156 627 111 595 z"},"<":{"x_min":0,"x_max":754,"ha":754,"o":"m 659 492 l 205 313 l 659 135 l 659 46 l 95 273 l 95 354 l 659 581 z"},"'":{"x_min":0,"x_max":247,"ha":247,"o":"m 161 729 l 161 458 l 86 458 l 86 729 z"},"=":{"x_min":0,"x_max":754,"ha":754,"o":"m 95 454 l 659 454 l 659 372 l 95 372 z m 95 255 l 659 255 l 659 172 l 95 172 z"},"a":{"x_min":0,"x_max":551,"ha":551,"o":"m 483 312 l 429 0 l 348 0 l 362 83 q 327 34 281 10 q 236 -14 180 -14 q 117 -14 77 29 q 37 71 37 138 q 37 234 106 290 q 174 345 295 345 l 408 345 l 412 369 q 413 373 414 378 q 414 382 414 392 q 414 436 382 460 q 350 484 292 484 q 253 484 211 473 q 170 461 126 439 l 140 522 q 186 541 230 551 q 273 560 314 560 q 401 560 447 518 q 492 476 492 396 q 492 380 490 358 q 488 336 483 312 z m 396 275 l 315 275 q 216 275 168 245 q 121 216 121 154 q 121 111 145 86 q 169 62 212 62 q 278 62 327 115 q 376 167 393 255 z"},"L":{"x_min":0,"x_max":501,"ha":501,"o":"m 151 729 l 240 729 l 128 82 l 447 82 l 433 0 l 24 0 z"},"3":{"x_min":0,"x_max":572,"ha":572,"o":"m 143 711 q 191 727 236 734 q 282 742 326 742 q 413 742 464 699 q 515 656 515 584 q 515 513 474 462 q 434 412 363 393 q 419 375 445 338 q 471 301 471 240 q 471 182 445 130 q 420 79 373 42 q 336 14 286 0 q 236 -14 171 -14 q 130 -14 88 -5 q 45 4 2 22 l 18 115 q 60 90 101 77 q 143 65 187 65 q 274 65 328 115 q 381 164 381 243 q 381 294 347 322 q 313 349 249 349 l 173 349 l 187 429 l 267 429 q 340 429 382 466 q 424 503 424 567 q 424 613 393 638 q 362 663 307 663 q 265 663 220 653 q 176 643 129 623 z"},";":{"x_min":0,"x_max":303,"ha":303,"o":"m 79 124 l 172 124 l 156 40 l 58 -116 l 1 -116 l 63 40 z m 147 517 l 240 517 l 219 393 l 126 393 z"},"J":{"x_min":0,"x_max":265,"ha":265,"o":"m 151 729 l 240 729 l 121 51 q 98 -82 42 -141 q -13 -200 -112 -200 l -147 -200 l -133 -117 l -105 -117 q -45 -117 -15 -80 q 16 -42 32 51 z"},"V":{"x_min":0,"x_max":615,"ha":615,"o":"m 186 0 l 70 729 l 157 729 l 253 102 l 571 729 l 668 729 l 289 0 z"},"\"":{"x_min":0,"x_max":414,"ha":414,"o":"m 161 729 l 161 458 l 86 458 l 86 729 z m 327 729 l 327 458 l 253 458 l 253 729 z"},"7":{"x_min":0,"x_max":572,"ha":572,"o":"m 115 729 l 564 729 l 556 687 l 181 0 l 83 0 l 438 646 l 101 646 z"},"S":{"x_min":0,"x_max":571,"ha":571,"o":"m 543 705 l 525 609 q 481 635 438 649 q 394 662 353 662 q 273 662 226 624 q 179 585 179 521 q 179 486 197 467 q 214 448 286 427 l 339 412 q 429 386 464 346 q 500 307 500 235 q 500 125 422 55 q 344 -14 216 -14 q 164 -14 111 -3 q 59 9 5 32 l 23 134 q 72 100 121 83 q 170 66 219 66 q 302 66 352 107 q 402 148 402 214 q 402 258 382 281 q 362 303 296 322 l 243 337 q 152 363 119 398 q 86 432 86 494 q 86 603 161 673 q 236 742 357 742 q 404 742 450 733 q 497 724 543 705 z"},"}":{"x_min":0,"x_max":572,"ha":572,"o":"m 6 -163 l 19 -93 l 53 -93 q 113 -93 134 -73 q 154 -54 167 19 l 190 142 q 204 220 230 256 q 257 291 306 301 q 274 310 256 335 q 239 360 239 397 q 239 409 240 425 q 242 440 245 459 l 266 578 q 268 594 269 606 q 270 619 270 631 q 270 662 251 676 q 232 690 190 690 l 156 690 l 167 760 l 200 760 q 282 760 318 733 q 354 707 354 647 q 354 632 352 615 q 351 599 347 580 l 327 465 q 327 463 327 459 q 322 435 322 413 q 322 371 344 353 q 365 335 415 335 l 442 335 l 429 263 l 402 263 q 339 263 311 236 q 283 209 271 136 l 248 17 q 236 -44 220 -79 q 205 -113 182 -132 q 161 -148 131 -156 q 101 -163 42 -163 z"},"Z":{"x_min":0,"x_max":616,"ha":616,"o":"m 118 729 l 633 729 l 621 654 l 112 83 l 530 83 l 517 0 l -19 0 l -6 75 l 502 646 l 104 646 z"},"x":{"x_min":0,"x_max":532,"ha":532,"o":"m 541 547 l 315 279 l 453 0 l 360 0 l 256 217 l 75 0 l -23 0 l 219 288 l 90 547 l 183 547 l 278 349 l 442 547 z"},")":{"x_min":0,"x_max":351,"ha":351,"o":"m -55 -132 q 62 30 119 175 q 176 320 176 455 q 176 532 159 608 q 143 684 109 759 l 180 759 q 220 674 240 596 q 260 517 260 441 q 260 295 199 152 q 138 9 17 -132 z"},"&":{"x_min":0,"x_max":702,"ha":702,"o":"m 425 127 l 238 392 q 185 349 157 301 q 130 252 130 202 q 130 140 167 103 q 205 65 267 65 q 309 65 349 81 q 389 97 425 127 z m 662 391 q 643 313 610 249 q 578 185 533 132 l 625 0 l 514 0 l 467 68 q 420 27 367 7 q 313 -14 255 -14 q 158 -14 100 39 q 42 92 42 180 q 42 255 83 322 q 124 389 204 446 q 190 468 184 491 q 177 515 177 541 q 177 574 187 604 q 197 634 216 658 q 247 698 292 720 q 338 742 391 742 q 425 742 459 733 q 494 725 530 707 l 515 618 q 481 641 449 653 q 416 665 385 665 q 331 665 297 634 q 263 602 263 553 q 263 532 271 511 q 279 490 310 447 l 489 193 q 521 231 545 281 q 568 332 581 391 z"},"_":{"x_min":0,"x_max":450,"ha":450,"o":"m 459 -166 l 459 -236 l -9 -236 l -9 -166 z"},"v":{"x_min":0,"x_max":532,"ha":532,"o":"m 64 547 l 150 547 l 222 82 l 458 547 l 543 547 l 264 0 l 155 0 z"},"O":{"x_min":0,"x_max":708,"ha":708,"o":"m 411 662 q 337 662 282 623 q 226 583 185 503 q 158 452 144 394 q 130 336 130 278 q 130 176 174 121 q 218 66 298 66 q 370 66 427 106 q 483 146 523 224 q 550 277 564 335 q 578 393 578 450 q 578 551 534 607 q 490 662 411 662 z m 295 -14 q 174 -14 105 65 q 36 145 36 283 q 36 362 63 445 q 90 527 138 592 q 193 667 262 705 q 331 742 413 742 q 534 742 603 663 q 672 584 672 448 q 672 364 646 283 q 620 202 570 136 q 514 60 446 23 q 378 -14 295 -14 z"},"(":{"x_min":0,"x_max":351,"ha":351,"o":"m 384 759 q 268 597 210 452 q 153 307 153 172 q 153 95 170 19 q 187 -57 220 -132 l 149 -132 q 109 -48 89 31 q 69 111 69 187 q 69 332 130 474 q 190 617 312 759 z"},"C":{"x_min":0,"x_max":628,"ha":628,"o":"m 625 673 l 607 569 q 565 616 518 639 q 471 662 416 662 q 341 662 284 622 q 227 582 186 500 q 159 447 145 388 q 131 330 131 270 q 131 170 178 118 q 224 66 312 66 q 374 66 430 88 q 486 109 539 153 l 519 36 q 466 11 413 -1 q 359 -14 306 -14 q 180 -14 109 62 q 38 138 38 274 q 38 361 65 445 q 92 529 143 598 q 196 672 265 707 q 333 742 425 742 q 481 742 532 725 q 582 708 625 673 z"},"W":{"x_min":0,"x_max":890,"ha":890,"o":"m 86 729 l 173 729 l 204 109 l 452 729 l 551 729 l 583 109 l 828 729 l 918 729 l 626 0 l 515 0 l 484 608 l 239 0 l 127 0 z"},"A":{"x_min":0,"x_max":615,"ha":615,"o":"m 332 729 l 433 729 l 554 0 l 461 0 l 434 187 l 139 187 l 46 0 l -47 0 z m 364 632 l 180 269 l 420 269 z"},"f":{"x_min":0,"x_max":316,"ha":316,"o":"m 430 760 l 417 685 l 340 685 q 296 685 276 666 q 256 646 247 595 l 238 547 l 371 547 l 359 477 l 226 477 l 143 0 l 61 0 l 145 477 l 68 477 l 79 547 l 156 547 l 163 585 q 180 682 222 721 q 264 760 354 760 z"},"Q":{"x_min":0,"x_max":708,"ha":708,"o":"m 325 -13 q 320 -14 315 -14 q 310 -14 299 -14 q 176 -14 106 64 q 37 143 37 281 q 37 362 63 444 q 90 526 138 592 q 192 667 261 705 q 330 742 413 742 q 534 742 603 663 q 672 584 672 448 q 672 301 600 179 q 527 57 411 7 l 500 -129 l 400 -129 z m 411 662 q 337 662 282 623 q 226 583 185 503 q 158 452 144 394 q 130 336 130 278 q 130 176 174 121 q 218 66 298 66 q 370 66 427 106 q 483 146 523 224 q 550 277 564 335 q 578 393 578 450 q 578 551 534 607 q 490 662 411 662 z"},"w":{"x_min":0,"x_max":736,"ha":736,"o":"m 77 547 l 156 547 l 177 107 l 361 547 l 455 547 l 481 107 l 656 547 l 737 547 l 512 0 l 417 0 l 394 453 l 205 0 l 110 0 z"},"-":{"x_min":0,"x_max":325,"ha":325,"o":"m 55 314 l 292 314 l 278 234 l 41 234 z"},"E":{"x_min":0,"x_max":568,"ha":568,"o":"m 152 729 l 567 729 l 552 646 l 226 646 l 188 430 l 501 430 l 487 347 l 174 347 l 128 83 l 462 83 l 447 0 l 24 0 z"},"s":{"x_min":0,"x_max":469,"ha":469,"o":"m 450 531 l 435 446 q 402 465 367 475 q 332 485 293 485 q 230 485 193 461 q 156 437 156 395 q 156 347 242 321 q 248 319 251 318 l 277 309 q 358 284 385 257 q 412 229 412 182 q 412 95 350 41 q 288 -14 187 -14 q 148 -14 105 -6 q 62 2 10 20 l 26 113 q 70 87 113 74 q 156 61 196 61 q 255 61 292 89 q 330 118 330 161 q 330 208 232 237 l 224 239 l 196 247 q 134 265 106 295 q 77 324 77 370 q 77 458 136 509 q 195 560 297 560 q 337 560 375 553 q 413 545 450 531 z"},">":{"x_min":0,"x_max":754,"ha":754,"o":"m 95 492 l 95 581 l 659 354 l 659 273 l 95 46 l 95 135 l 548 313 z"},"l":{"x_min":0,"x_max":250,"ha":250,"o":"m 165 760 l 246 760 l 112 0 l 32 0 z"},"8":{"x_min":0,"x_max":572,"ha":572,"o":"m 400 221 q 400 276 366 311 q 331 346 274 346 q 206 346 161 301 q 117 255 117 185 q 117 129 151 97 q 185 64 243 64 q 312 64 356 108 q 400 153 400 221 z m 446 561 q 446 607 415 636 q 384 664 333 664 q 273 664 234 626 q 195 589 195 532 q 195 483 226 454 q 256 424 307 424 q 367 424 406 463 q 446 501 446 561 z m 385 384 q 435 363 461 320 q 488 278 488 218 q 488 117 417 51 q 347 -14 236 -14 q 142 -14 86 37 q 30 89 30 175 q 30 253 78 314 q 125 375 203 391 q 156 409 132 446 q 108 482 108 535 q 108 624 174 683 q 240 742 342 742 q 427 742 480 694 q 534 646 534 572 q 534 507 494 457 q 454 406 385 384 z"},"\\":{"x_min":0,"x_max":303,"ha":303,"o":"m 151 729 l 236 -93 l 162 -93 l 77 729 z"},"e":{"x_min":0,"x_max":554,"ha":554,"o":"m 433 322 q 434 330 435 338 q 436 347 436 355 q 436 415 404 449 q 373 484 318 484 q 258 484 212 442 q 166 399 143 322 z m 503 252 l 127 252 q 125 233 124 223 q 123 212 123 204 q 123 136 160 99 q 198 62 266 62 q 319 62 366 75 q 413 88 454 114 l 438 25 q 395 5 348 -4 q 302 -14 254 -14 q 151 -14 96 40 q 42 95 42 195 q 42 280 69 354 q 96 427 149 485 q 184 521 231 541 q 278 560 332 560 q 415 560 464 504 q 514 449 514 355 q 514 333 511 307 q 508 281 503 252 z"},"b":{"x_min":0,"x_max":571,"ha":571,"o":"m 446 334 q 446 405 417 445 q 387 485 336 485 q 298 485 266 465 q 233 444 209 406 q 183 365 168 312 q 154 258 154 205 q 154 138 183 99 q 211 61 262 61 q 300 61 333 81 q 365 101 390 139 q 415 179 430 232 q 446 286 446 334 z m 194 464 q 224 509 269 534 q 314 560 363 560 q 439 560 484 503 q 528 447 528 350 q 528 271 502 197 q 476 123 428 65 q 396 27 355 6 q 313 -14 268 -14 q 220 -14 185 10 q 150 35 128 83 l 113 0 l 33 0 l 166 760 l 247 760 z"},"%":{"x_min":0,"x_max":855,"ha":855,"o":"m 211 345 q 151 345 116 388 q 82 432 82 506 q 82 611 133 677 q 184 742 266 742 q 325 742 360 698 q 395 655 395 580 q 395 476 344 410 q 293 345 211 345 z m 325 577 q 325 628 308 654 q 291 680 257 680 q 208 680 180 633 q 152 585 152 501 q 152 456 170 432 q 188 407 221 407 q 268 407 296 454 q 325 500 325 577 z m 703 218 q 703 270 686 296 q 669 322 635 322 q 587 322 559 274 q 531 227 531 142 q 531 97 549 72 q 566 48 600 48 q 646 48 675 94 q 703 141 703 218 z m 590 -14 q 530 -14 496 29 q 461 73 461 147 q 461 252 512 318 q 562 383 644 383 q 704 383 739 340 q 773 297 773 222 q 773 117 722 52 q 671 -14 590 -14 z m 740 742 l 197 -14 l 127 -14 l 670 742 z"},"m":{"x_min":0,"x_max":876,"ha":876,"o":"m 808 330 l 750 0 l 670 0 l 727 327 q 730 348 732 363 q 733 378 733 389 q 733 433 711 458 q 689 482 650 482 q 591 482 545 433 q 499 384 485 305 l 431 0 l 350 0 l 408 327 q 411 345 413 361 q 415 376 415 388 q 415 433 393 457 q 371 482 332 482 q 272 482 226 433 q 180 384 167 305 l 112 0 l 32 0 l 128 547 l 209 547 l 193 462 q 227 510 271 535 q 314 560 365 560 q 419 560 453 529 q 488 498 495 442 q 532 500 580 530 q 629 560 683 560 q 746 560 781 520 q 815 479 815 405 q 815 389 813 369 q 812 350 808 330 z"},"#":{"x_min":0,"x_max":754,"ha":754,"o":"m 394 718 l 349 515 l 477 515 l 523 718 l 593 718 l 548 515 l 696 515 l 679 440 l 531 440 l 495 277 l 644 277 l 628 202 l 478 202 l 432 0 l 362 0 l 407 202 l 278 202 l 233 0 l 162 0 l 208 202 l 63 202 l 79 277 l 224 277 l 261 440 l 113 440 l 130 515 l 278 515 l 323 718 z m 460 440 l 332 440 l 295 277 l 424 277 z"},",":{"x_min":0,"x_max":286,"ha":286,"o":"m 81 124 l 174 124 l 159 40 l 60 -116 l 2 -116 l 66 40 z"},"n":{"x_min":0,"x_max":570,"ha":570,"o":"m 501 330 l 444 0 l 362 0 l 420 327 q 424 350 426 367 q 429 385 429 395 q 429 436 405 459 q 382 482 340 482 q 275 482 228 434 q 181 386 167 303 l 112 0 l 32 0 l 127 547 l 208 547 l 191 461 q 226 508 273 534 q 320 560 373 560 q 438 560 473 521 q 509 482 509 411 q 509 394 507 374 q 505 354 501 330 z"},"h":{"x_min":0,"x_max":570,"ha":570,"o":"m 501 330 l 444 0 l 362 0 l 420 327 q 424 350 426 367 q 429 385 429 395 q 429 436 405 459 q 382 482 340 482 q 275 482 227 433 q 180 384 166 303 l 112 0 l 32 0 l 165 760 l 246 760 l 193 461 q 224 507 272 533 q 320 560 373 560 q 438 560 473 521 q 509 482 509 411 q 509 394 507 374 q 505 354 501 330 z"},"z":{"x_min":0,"x_max":472,"ha":472,"o":"m 105 547 l 489 547 l 475 465 l 104 72 l 410 72 l 397 0 l -2 0 l 12 82 l 383 475 l 92 475 z"},"B":{"x_min":0,"x_max":617,"ha":617,"o":"m 152 729 l 379 729 q 471 729 517 691 q 562 653 562 576 q 562 506 523 455 q 484 404 420 393 q 475 379 502 341 q 529 302 529 238 q 529 128 456 64 q 383 0 256 0 l 24 0 z m 174 348 l 127 81 l 270 81 q 350 81 394 122 q 438 163 438 238 q 438 295 409 322 q 380 348 316 348 z m 226 648 l 187 428 l 319 428 q 390 428 430 462 q 470 497 470 557 q 470 604 443 626 q 416 648 357 648 z"},"K":{"x_min":0,"x_max":590,"ha":590,"o":"m 152 729 l 241 729 l 187 422 l 532 729 l 650 729 l 260 381 l 545 0 l 438 0 l 175 355 l 113 0 l 24 0 z"},"R":{"x_min":0,"x_max":625,"ha":625,"o":"m 227 648 l 182 389 l 296 389 q 363 389 405 430 q 446 472 446 538 q 446 591 418 620 q 391 648 338 648 z m 390 350 q 418 343 437 314 q 455 285 480 199 l 536 0 l 442 0 l 391 187 q 371 259 345 284 q 319 308 266 308 l 167 308 l 113 0 l 24 0 l 152 729 l 352 729 q 443 729 491 683 q 540 638 540 552 q 540 476 499 420 q 458 364 390 350 z"},"T":{"x_min":0,"x_max":549,"ha":549,"o":"m 53 729 l 608 729 l 594 646 l 360 646 l 248 0 l 158 0 l 271 646 l 39 646 z"},"P":{"x_min":0,"x_max":542,"ha":542,"o":"m 152 729 l 357 729 q 447 729 494 683 q 541 636 541 547 q 541 427 472 360 q 402 293 276 293 l 165 293 l 113 0 l 24 0 z m 227 648 l 179 374 l 291 374 q 367 374 407 417 q 447 460 447 540 q 447 591 420 620 q 393 648 343 648 z"},"|":{"x_min":0,"x_max":303,"ha":303,"o":"m 189 764 l 189 -236 l 114 -236 l 114 764 z"},"t":{"x_min":0,"x_max":353,"ha":353,"o":"m 380 547 l 368 477 l 207 477 l 155 180 q 152 164 151 152 q 149 141 149 135 q 149 104 166 89 q 183 75 221 75 l 302 75 l 289 0 l 211 0 q 139 0 104 31 q 68 62 68 126 q 68 137 70 151 q 71 164 74 180 l 126 477 l 58 477 l 70 547 l 138 547 l 165 702 l 246 702 l 219 547 z"},"M":{"x_min":0,"x_max":776,"ha":776,"o":"m 152 729 l 285 729 l 362 238 l 616 729 l 752 729 l 625 0 l 538 0 l 650 639 l 393 140 l 306 140 l 222 641 l 111 0 l 24 0 z"},"g":{"x_min":0,"x_max":571,"ha":571,"o":"m 537 547 l 453 68 q 429 -71 360 -140 q 292 -208 176 -208 q 134 -208 97 -201 q 61 -194 29 -179 l 44 -92 q 74 -113 107 -124 q 141 -134 178 -134 q 255 -134 305 -87 q 354 -41 370 47 l 377 88 q 343 45 298 22 q 253 0 202 0 q 127 0 84 55 q 42 110 42 206 q 42 282 67 354 q 93 427 140 483 q 171 520 213 540 q 254 560 300 560 q 350 560 386 534 q 423 509 441 462 l 455 547 z m 415 346 q 415 413 387 449 q 358 485 307 485 q 274 485 246 471 q 217 457 196 431 q 163 389 144 332 q 125 275 125 215 q 125 147 154 111 q 182 75 235 75 q 312 75 364 153 q 415 230 415 346 z"},"j":{"x_min":0,"x_max":250,"ha":250,"o":"m 131 547 l 212 547 l 115 -10 l 114 -12 q 98 -105 77 -140 q 57 -173 19 -190 q -19 -208 -71 -208 l -101 -208 l -88 -132 l -67 -132 q -20 -132 0 -110 q 20 -88 34 -10 z m 169 760 l 250 760 l 230 646 l 149 646 z"},"i":{"x_min":0,"x_max":250,"ha":250,"o":"m 165 760 l 246 760 l 226 646 l 145 646 z m 128 547 l 209 547 l 112 0 l 32 0 z"},"y":{"x_min":0,"x_max":532,"ha":532,"o":"m 224 -51 q 167 -156 132 -182 q 97 -208 42 -208 l -22 -208 l -8 -133 l 38 -133 q 72 -133 96 -112 q 120 -92 149 -32 l 174 20 l 65 547 l 151 547 l 232 128 l 458 547 l 543 547 z"},"@":{"x_min":0,"x_max":900,"ha":900,"o":"m 551 116 q 521 80 485 62 q 450 43 411 43 q 347 43 304 91 q 262 140 262 214 q 262 321 327 402 q 393 482 480 482 q 521 482 552 462 q 584 443 601 408 l 613 472 l 676 472 l 613 112 q 691 125 741 200 q 791 274 791 376 q 791 490 719 562 q 646 634 531 634 q 453 634 380 603 q 307 573 251 517 q 187 452 152 366 q 116 280 116 190 q 116 62 193 -21 q 270 -104 388 -104 q 445 -104 500 -83 q 555 -62 615 -16 l 651 -72 q 591 -122 523 -147 q 454 -173 381 -173 q 240 -173 146 -68 q 52 36 52 196 q 52 306 98 408 q 144 511 227 586 q 288 642 367 672 q 446 703 529 703 q 670 703 762 611 q 855 519 855 380 q 855 236 766 140 q 676 44 538 41 z m 481 413 q 419 413 375 359 q 332 304 332 228 q 332 173 357 143 q 382 112 427 112 q 489 112 531 167 q 573 223 573 304 q 573 354 548 384 q 523 413 481 413 z"},".":{"x_min":0,"x_max":286,"ha":286,"o":"m 74 124 l 167 124 l 145 0 l 52 0 z"},"p":{"x_min":0,"x_max":571,"ha":571,"o":"m 447 337 q 447 409 419 447 q 391 485 338 485 q 302 485 269 464 q 236 444 211 405 q 186 366 171 312 q 156 257 156 203 q 156 135 184 98 q 212 61 264 61 q 302 61 335 81 q 368 101 391 139 q 416 179 431 233 q 447 288 447 337 z m 196 464 q 229 511 273 536 q 317 560 372 560 q 447 560 489 505 q 530 450 530 351 q 530 270 504 197 q 479 123 430 65 q 397 26 356 6 q 315 -14 271 -14 q 218 -14 183 10 q 147 34 129 82 l 79 -208 l -2 -208 l 130 547 l 211 547 z"},"X":{"x_min":0,"x_max":616,"ha":616,"o":"m 124 729 l 213 729 l 326 466 l 530 729 l 633 729 l 363 381 l 526 0 l 437 0 l 305 307 l 65 0 l -38 0 l 269 392 z"},"*":{"x_min":0,"x_max":450,"ha":450,"o":"m 423 609 l 266 514 l 423 419 l 397 371 l 250 470 l 250 286 l 200 286 l 200 470 l 52 371 l 27 419 l 185 514 l 27 609 l 52 657 l 200 558 l 200 742 l 250 742 l 250 558 l 397 657 z"},"Y":{"x_min":0,"x_max":549,"ha":549,"o":"m 57 729 l 152 729 l 274 429 l 508 729 l 608 729 l 311 347 l 250 0 l 161 0 l 222 347 z"},"c":{"x_min":0,"x_max":495,"ha":495,"o":"m 482 526 l 466 437 q 438 460 405 472 q 372 484 336 484 q 298 484 263 469 q 228 454 204 426 q 167 383 146 326 q 125 269 125 208 q 125 134 158 98 q 191 62 259 62 q 292 62 330 73 q 368 84 409 107 l 394 18 q 358 2 321 -6 q 284 -14 245 -14 q 147 -14 94 40 q 42 95 42 196 q 42 281 69 352 q 96 424 150 481 q 187 520 237 540 q 287 560 345 560 q 380 560 414 552 q 447 543 482 526 z"},"!":{"x_min":0,"x_max":360,"ha":360,"o":"m 199 729 l 288 729 l 232 409 l 192 235 l 121 235 l 143 409 z m 94 124 l 183 124 l 161 0 l 71 0 z"},"/":{"x_min":0,"x_max":303,"ha":303,"o":"m 306 729 l 384 729 l 12 -93 l -66 -93 z"},"[":{"x_min":0,"x_max":351,"ha":351,"o":"m 191 760 l 378 760 l 365 690 l 260 690 l 129 -62 l 234 -62 l 222 -132 l 36 -132 z"},"6":{"x_min":0,"x_max":572,"ha":572,"o":"m 413 270 q 413 332 385 368 q 356 404 307 404 q 239 404 192 345 q 146 287 146 201 q 146 137 174 100 q 203 64 253 64 q 321 64 367 124 q 413 184 413 270 z m 533 712 l 518 622 q 492 641 459 650 q 426 660 389 660 q 298 660 243 597 q 188 533 160 398 q 192 439 235 461 q 277 482 327 482 q 407 482 455 430 q 502 379 502 292 q 502 221 479 159 q 455 98 411 52 q 380 20 339 3 q 298 -14 252 -14 q 161 -14 109 50 q 57 114 57 225 q 57 329 81 425 q 104 521 147 591 q 193 665 257 704 q 322 742 399 742 q 434 742 467 735 q 500 727 533 712 z"},"r":{"x_min":0,"x_max":370,"ha":370,"o":"m 401 464 q 389 471 373 475 q 357 479 339 479 q 274 479 226 425 q 178 370 162 279 l 112 0 l 32 0 l 128 547 l 209 547 l 193 462 q 226 509 270 535 q 314 560 365 560 q 378 560 391 558 q 404 557 417 553 z"},"2":{"x_min":0,"x_max":572,"ha":572,"o":"m 415 352 l 131 82 l 445 82 l 429 0 l 3 0 l 18 83 l 314 365 q 374 422 398 466 q 423 509 423 554 q 423 602 393 631 q 363 661 315 661 q 273 661 222 645 q 171 628 113 596 l 130 694 q 184 718 234 730 q 283 742 326 742 q 412 742 464 691 q 517 641 517 558 q 517 502 492 452 q 467 401 415 352 z"},"{":{"x_min":0,"x_max":572,"ha":572,"o":"m 544 760 l 532 690 l 498 690 q 438 690 417 671 q 397 651 383 578 l 361 455 q 347 377 320 342 q 293 306 245 296 q 277 287 295 262 q 312 237 312 200 q 312 188 311 172 q 309 156 306 138 l 285 19 q 283 3 282 -10 q 281 -22 281 -34 q 281 -65 300 -79 q 318 -93 361 -93 l 395 -93 l 382 -163 l 351 -163 q 269 -163 233 -136 q 197 -110 197 -50 q 197 -34 199 -18 q 200 -1 204 17 l 223 132 q 223 133 224 138 q 229 162 229 184 q 229 226 207 244 q 186 262 136 262 l 109 262 l 121 334 l 148 334 q 212 334 240 361 q 268 387 282 461 l 302 580 q 314 640 329 675 q 345 710 369 729 q 389 746 420 753 q 450 760 508 760 z"},"9":{"x_min":0,"x_max":572,"ha":572,"o":"m 40 16 l 56 106 q 81 87 114 78 q 146 68 184 68 q 274 68 330 132 q 386 196 413 331 q 380 290 338 268 q 295 246 246 246 q 166 246 118 298 q 71 349 71 436 q 71 507 94 569 q 118 630 163 676 q 194 708 234 725 q 274 742 320 742 q 411 742 464 678 q 517 614 517 503 q 517 400 492 304 q 468 208 425 137 q 379 63 315 24 q 251 -14 173 -14 q 139 -14 105 -7 q 72 1 40 16 z m 159 459 q 159 397 188 361 q 217 324 266 324 q 334 324 381 382 q 427 440 427 527 q 427 591 398 628 q 370 664 319 664 q 251 664 205 605 q 159 545 159 459 z"}," ":{"x_min":0,"x_max":286,"ha":286,"o":""},"I":{"x_min":0,"x_max":265,"ha":265,"o":"m 152 729 l 241 729 l 113 0 l 24 0 z"},"H":{"x_min":0,"x_max":677,"ha":677,"o":"m 152 729 l 241 729 l 189 430 l 511 430 l 563 729 l 652 729 l 525 0 l 436 0 l 497 347 l 174 347 l 113 0 l 24 0 z"},"4":{"x_min":0,"x_max":572,"ha":572,"o":"m 387 729 l 499 729 l 415 254 l 508 254 l 494 172 l 400 172 l 371 0 l 283 0 l 312 172 l 16 172 l 33 267 z m 395 643 l 103 254 l 327 254 z"},"~":{"x_min":0,"x_max":754,"ha":754,"o":"m 659 399 l 659 312 q 613 273 573 257 q 534 240 491 240 q 443 240 379 269 q 374 271 372 272 q 369 273 362 276 q 294 306 253 306 q 214 306 176 287 q 139 269 95 228 l 95 315 q 142 354 181 370 q 220 387 263 387 q 311 387 376 358 q 380 356 382 355 q 386 354 392 351 q 460 321 501 321 q 539 321 576 339 q 613 358 659 399 z"},"D":{"x_min":0,"x_max":693,"ha":693,"o":"m 152 729 l 343 729 q 495 729 572 657 q 650 586 650 445 q 650 352 620 265 q 591 179 539 120 q 487 60 406 30 q 326 0 216 0 l 24 0 z m 227 648 l 128 81 l 244 81 q 393 81 475 176 q 556 271 556 445 q 556 550 503 599 q 451 648 338 648 z"},"^":{"x_min":0,"x_max":754,"ha":754,"o":"m 420 729 l 659 457 l 570 457 l 377 650 l 184 457 l 95 457 l 334 729 z"},"0":{"x_min":0,"x_max":572,"ha":572,"o":"m 344 742 q 433 742 480 676 q 527 610 527 487 q 527 393 505 301 q 483 208 443 135 q 402 62 347 24 q 292 -14 225 -14 q 139 -14 92 52 q 45 119 45 241 q 45 334 67 427 q 90 520 130 593 q 171 666 225 704 q 279 742 344 742 z m 338 664 q 305 664 275 644 q 245 625 221 586 q 180 521 156 425 q 132 329 132 227 q 132 146 158 105 q 184 64 234 64 q 269 64 299 84 q 329 104 353 142 q 393 206 417 302 q 440 399 440 501 q 440 582 414 623 q 389 664 338 664 z"},"F":{"x_min":0,"x_max":518,"ha":518,"o":"m 152 729 l 528 729 l 514 646 l 226 646 l 188 431 l 448 431 l 434 348 l 174 348 l 112 0 l 24 0 z"},"`":{"x_min":0,"x_max":450,"ha":450,"o":"m 257 800 l 350 617 l 282 617 l 171 800 z"},"k":{"x_min":0,"x_max":521,"ha":521,"o":"m 165 760 l 246 760 l 168 317 l 446 547 l 551 547 l 241 285 l 467 0 l 369 0 l 159 267 l 112 0 l 32 0 z"},"u":{"x_min":0,"x_max":570,"ha":570,"o":"m 60 217 l 118 547 l 199 547 l 142 220 q 137 196 135 179 q 133 162 133 151 q 133 109 156 87 q 179 64 221 64 q 286 64 333 113 q 380 162 395 244 l 449 547 l 530 547 l 435 0 l 354 0 l 370 86 q 336 38 289 12 q 241 -14 188 -14 q 124 -14 87 25 q 51 64 51 135 q 51 149 53 171 q 56 193 60 217 z"},"]":{"x_min":0,"x_max":351,"ha":351,"o":"m 308 760 l 152 -132 l -34 -132 l -22 -62 l 83 -62 l 214 690 l 110 690 l 122 760 z"},"U":{"x_min":0,"x_max":659,"ha":659,"o":"m 139 729 l 229 729 l 151 286 q 146 256 145 237 q 143 218 143 203 q 143 136 176 101 q 210 66 275 66 q 360 66 408 118 q 455 169 475 286 l 552 729 l 642 729 l 562 274 q 537 126 464 56 q 392 -14 266 -14 q 167 -14 110 41 q 52 96 52 190 q 52 207 54 228 q 57 250 61 274 z"},"o":{"x_min":0,"x_max":550,"ha":550,"o":"m 229 -14 q 142 -14 92 45 q 42 104 42 207 q 42 267 59 328 q 76 390 104 432 q 147 498 201 529 q 254 560 322 560 q 406 560 458 502 q 509 444 509 350 q 509 285 492 221 q 475 156 447 114 q 404 48 351 17 q 297 -14 229 -14 z m 125 210 q 125 136 153 99 q 181 62 238 62 q 319 62 372 141 q 426 220 426 341 q 426 412 397 448 q 369 484 313 484 q 268 484 232 460 q 196 437 168 388 q 147 352 136 306 q 125 259 125 210 z"},"N":{"x_min":0,"x_max":673,"ha":673,"o":"m 152 729 l 271 729 l 453 104 l 562 729 l 649 729 l 521 0 l 401 0 l 221 629 l 111 0 l 24 0 z"},"+":{"x_min":0,"x_max":754,"ha":754,"o":"m 414 627 l 414 355 l 659 355 l 659 272 l 414 272 l 414 0 l 340 0 l 340 272 l 95 272 l 95 355 l 340 355 l 340 627 z"},"G":{"x_min":0,"x_max":697,"ha":697,"o":"m 491 109 l 525 300 l 380 300 l 394 381 l 626 381 l 569 60 q 511 24 442 5 q 373 -14 303 -14 q 180 -14 110 62 q 41 138 41 274 q 41 387 83 489 q 125 590 200 658 q 247 701 303 721 q 358 742 427 742 q 488 742 545 725 q 601 708 652 673 l 635 568 q 595 614 542 638 q 489 662 429 662 q 358 662 305 633 q 252 603 210 541 q 175 488 154 417 q 134 345 134 271 q 134 169 181 117 q 228 66 321 66 q 368 66 411 77 q 455 88 491 109 z"},"q":{"x_min":0,"x_max":571,"ha":571,"o":"m 375 82 q 343 35 299 10 q 254 -14 201 -14 q 126 -14 84 42 q 42 98 42 196 q 42 275 68 349 q 94 422 143 481 q 174 519 215 540 q 256 560 301 560 q 356 560 391 536 q 426 512 442 464 l 456 546 l 538 546 l 406 -206 l 325 -206 z m 125 209 q 125 137 152 99 q 180 61 231 61 q 308 61 362 142 q 416 224 416 340 q 416 410 388 448 q 360 485 308 485 q 270 485 237 465 q 204 445 180 407 q 155 367 140 313 q 125 260 125 209 z"},"d":{"x_min":0,"x_max":571,"ha":571,"o":"m 376 82 q 344 35 299 10 q 255 -14 201 -14 q 127 -14 84 42 q 42 98 42 195 q 42 276 67 349 q 93 423 143 481 q 175 520 216 540 q 257 560 301 560 q 349 560 385 535 q 421 509 441 462 l 494 760 l 575 760 l 442 0 l 361 0 z m 125 211 q 125 140 154 101 q 183 61 234 61 q 271 61 304 81 q 336 102 361 141 q 387 182 402 236 q 417 290 417 342 q 417 410 388 448 q 359 486 309 486 q 271 486 237 466 q 204 446 181 408 q 156 368 140 314 q 125 260 125 211 z"},"1":{"x_min":0,"x_max":572,"ha":572,"o":"m 59 83 l 204 83 l 301 644 l 138 609 l 153 694 l 316 729 l 405 729 l 292 83 l 437 83 l 422 0 l 44 0 z"},"5":{"x_min":0,"x_max":572,"ha":572,"o":"m 523 729 l 509 647 l 238 647 l 206 467 q 227 474 247 478 q 268 481 290 481 q 380 481 433 427 q 486 373 486 280 q 486 215 459 155 q 432 96 382 51 q 347 20 296 3 q 246 -14 186 -14 q 146 -14 105 -6 q 63 1 18 17 l 34 109 q 75 87 115 76 q 156 65 197 65 q 283 65 339 122 q 395 179 395 265 q 395 329 358 364 q 322 399 256 399 q 221 399 184 390 q 146 381 106 363 l 170 729 z"}}}
